<svg id="Layer_1" data-name="Layer 1" xmlns="http://www.w3.org/2000/svg" viewBox="0 0 1005.49 460.44"><defs><style>.cls-1{fill:#F66035;}.cls-2{fill:#fff;}</style></defs><title>dudaLogoSvg</title><path class="cls-1" d="M958.62,451.08h-910a23.1,23.1,0,0,0-3.71-1.23,42,42,0,0,1-34.66-32.06c-0.58-2.56-1.09-5.14-1.63-7.7q0-182,0-364a26.08,26.08,0,0,0,1.15-3.76c2.71-18,14.4-31.06,31.74-35.45l7.12-1.79h910a21.58,21.58,0,0,0,3.69,1.24,42.13,42.13,0,0,1,34.76,32.56c0.5,2.4,1,4.8,1.55,7.2v364a28.43,28.43,0,0,0-1.22,4.24,41.52,41.52,0,0,1-29.76,34.41C964.64,449.56,961.62,450.29,958.62,451.08ZM653.44,194.74c-19.37-13.23-39.56-14.44-60.64-10.41-39,7.45-66.22,43.62-68.41,82.47-1.42,25.12,6.26,47.28,22.2,67,22.45,27.72,71.88,39.86,102.89,18.63a27.78,27.78,0,0,1,4-1.79,64.54,64.54,0,0,1,0,6.62c-0.54,4.77,1.34,6.38,6.19,6.27,12.82-.3,25.65-0.1,38.48-0.1,7.72,0,7.73,0,7.73-7.58q0-107.94,0-215.87c0-13.66-.22-27.32.11-41,0.12-5.17-1.6-6.5-6.59-6.38q-19.73.48-39.47,0c-5-.14-6.56,1.27-6.52,6.38,0.22,29.65.11,59.3,0.11,88.95C653.44,189.83,653.44,191.79,653.44,194.74ZM237.21,350.93c0,1.66,0,3.48,0,5.3,0,7.15,0,7.16,7.4,7.16h37c7.32,0,7.32,0,7.32-7.41q0-128,0-256a21.92,21.92,0,0,1,0-2.5c0.42-3.68-1.12-5-4.84-4.89-11,.19-22,0.07-33,0.07H237.28V194.65c-5.28-2.75-9.88-5.79-14.92-7.67-18.11-6.75-36.42-5.89-54.71-.48-33.12,9.81-59.73,44-60.14,85.06-0.22,21.77,6.06,41.67,19.83,58.82,22,27.37,50.8,37,84.75,30.75C220.66,359.56,228.58,354.54,237.21,350.93Zm612.65-101.8a23.37,23.37,0,0,1-2.72-.86,89,89,0,0,0-53-7.55c-14.66,2.31-28,7.28-38,18.81-12.83,14.67-18.2,31.79-16.89,51.13,1.11,16.33,7.1,30.74,21.2,39.32,25.5,15.52,52.5,18.59,80.2,5.17,3.08-1.49,6-3.26,9.65-5.24a71.11,71.11,0,0,1,0,7.64c-0.55,4.66,1.38,6,5.94,5.93q20-.38,40,0c4.46,0.08,6-1.07,6-5.81-0.2-34.15-.06-68.31-0.16-102.47a131.18,131.18,0,0,0-1.1-18.38c-2.27-15.64-8.51-29.3-21.06-39.54-15.63-12.75-34.15-15.8-53.45-15.1a205.44,205.44,0,0,0-30.07,3.67c-14.65,2.73-28.29,8.41-41.2,15.89-3,1.72-3.54,3.3-1.56,6.25,5.47,8.16,10.62,16.53,16.15,24.64,0.81,1.19,3.56,2.42,4.55,1.92a85.59,85.59,0,0,1,31.52-8.65c10.73-1,21.58-1.92,32,2.32C847,232,851,238.57,849.87,249.13Zm-410.43,99.2c0,4,.16,6.81,0,9.57-0.28,4,1.08,5.65,5.36,5.58,13.83-.22,27.66-0.2,41.49,0,4,0.05,5.61-1.12,5.61-5.35q-0.15-85.48,0-171c0-4.08-1.31-5.55-5.48-5.48-13.33.21-26.66,0.07-40,.08-6.92,0-6.94,0-6.95,6.87q0,52.49,0,105c0,2.12,0,4.46-.76,6.34-5,11.75-17.78,19.8-29.25,18.73-15.06-1.4-26.11-10.16-29.25-23.77a62.84,62.84,0,0,1-1.29-13.84c-0.11-30.83,0-61.65-.06-92.48,0-6.82,0-6.83-7-6.83H333.32c-6.86,0-6.88,0-6.88,6.94q0,52.74,0,105.48a62.06,62.06,0,0,0,1.06,12.39c9.44,45.55,44.83,60.92,82.44,55.33C420.52,360.32,429.87,355.65,439.44,348.33Z"/><path class="cls-2" d="M653.44,194.74c0-3,0-4.91,0-6.86,0-29.65.12-59.3-.11-88.95,0-5.11,1.47-6.52,6.52-6.38q19.72,0.55,39.47,0c5-.12,6.71,1.21,6.59,6.38-0.33,13.65-.11,27.31-0.11,41q0,107.94,0,215.87c0,7.58,0,7.58-7.73,7.58-12.83,0-25.66-.2-38.48.1-4.86.11-6.73-1.5-6.19-6.27a64.54,64.54,0,0,0,0-6.62,27.78,27.78,0,0,0-4,1.79c-31,21.23-80.44,9.09-102.89-18.63-15.94-19.69-23.61-41.85-22.2-67,2.19-38.85,29.37-75,68.41-82.47C613.88,180.31,634.07,181.51,653.44,194.74ZM653.76,274l-0.35,0c0-4.5.1-9,0-13.5-0.54-19.92-20.63-37.29-40.39-35-29,3.38-45.66,23.8-43.05,52.86,2.33,26.05,22,43.41,48.08,41.29,16.13-1.31,31.07-10.26,34.51-26.28C653.89,287.12,653.41,280.47,653.76,274Z"/><path class="cls-2" d="M237.21,350.93c-8.63,3.61-16.56,8.63-25.12,10.2-34,6.21-62.76-3.38-84.75-30.75-13.77-17.14-20.05-37-19.83-58.82,0.41-41,27-75.25,60.14-85.06,18.28-5.41,36.59-6.27,54.71.48,5,1.88,9.64,4.92,14.92,7.67V92.7h13.83c11,0,22,.13,33-0.07,3.72-.06,5.26,1.21,4.84,4.89a21.92,21.92,0,0,0,0,2.5q0,128,0,256c0,7.4,0,7.41-7.32,7.41h-37c-7.4,0-7.4,0-7.4-7.16C237.21,354.41,237.21,352.59,237.21,350.93Zm0.43-76.84c-0.46-6.08-.4-12.46-1.52-18.62-3.23-17.8-22.4-32-39.86-30-33.44,3.92-47.4,30.57-42.5,57.28,6.4,34.89,43.13,45.74,68,30,7.85-5,13-11.92,14.5-21.11C237.16,286,237.19,280.12,237.64,274.09Z"/><path class="cls-2" d="M849.87,249.13C851,238.57,847,232,837.75,228.23c-10.42-4.23-21.27-3.27-32-2.32a85.59,85.59,0,0,0-31.52,8.65c-1,.5-3.73-0.73-4.55-1.92-5.54-8.11-10.68-16.48-16.15-24.64-2-2.95-1.41-4.53,1.56-6.25,12.91-7.48,26.56-13.16,41.2-15.89a205.44,205.44,0,0,1,30.07-3.67c19.3-.7,37.82,2.35,53.45,15.1,12.55,10.24,18.79,23.9,21.06,39.54a131.18,131.18,0,0,1,1.1,18.38c0.1,34.16,0,68.31.16,102.47,0,4.74-1.5,5.89-6,5.81q-20-.37-40,0c-4.56.09-6.49-1.28-5.94-5.93a71.11,71.11,0,0,0,0-7.64c-3.62,2-6.57,3.74-9.65,5.24C813,368.57,786,365.5,760.45,350c-14.11-8.58-20.1-23-21.2-39.32-1.31-19.33,4.07-36.46,16.89-51.13,10.09-11.54,23.39-16.51,38-18.81a89,89,0,0,1,53,7.55A23.37,23.37,0,0,0,849.87,249.13Zm0.43,49.15c0-12.05-2.12-16.07-11.9-19.64-14.63-5.35-29.14-4.48-42.89,2.93-7.35,4-12,10.33-11.44,19,0.52,8.5,5.77,14,13.37,17.13a55.52,55.52,0,0,0,36.16,2.19C847,316.41,850.29,311.9,850.29,298.28Z"/><path class="cls-2" d="M439.44,348.33c-9.56,7.32-18.92,12-29.46,13.56-37.61,5.59-73-9.77-82.44-55.33a62.06,62.06,0,0,1-1.06-12.39q-0.12-52.74,0-105.48c0-6.93,0-6.94,6.88-6.94h38.49c7,0,7,0,7,6.83,0,30.83,0,61.65.06,92.48a62.84,62.84,0,0,0,1.29,13.84c3.14,13.6,14.19,22.36,29.25,23.77,11.48,1.07,24.23-7,29.25-18.73,0.8-1.88.75-4.21,0.76-6.34q0.06-52.49,0-105c0-6.86,0-6.87,6.95-6.87,13.33,0,26.66.13,40-.08,4.17-.06,5.48,1.4,5.48,5.48q-0.13,85.48,0,171c0,4.23-1.59,5.4-5.61,5.35-13.83-.18-27.66-0.21-41.49,0-4.29.07-5.64-1.6-5.36-5.58C439.6,355.13,439.44,352.34,439.44,348.33Z"/><path class="cls-1" d="M653.76,274c-0.35,6.47.13,13.11-1.22,19.36-3.44,16-18.38,25-34.51,26.28-26.06,2.12-45.75-15.23-48.08-41.29-2.6-29.06,14-49.48,43.05-52.86,19.76-2.3,39.85,15.07,40.39,35,0.12,4.5,0,9,0,13.5Z"/><path class="cls-1" d="M237.64,274.09c-0.45,6-.48,11.88-1.4,17.58-1.48,9.19-6.65,16.13-14.5,21.11-24.84,15.75-61.57,4.9-68-30-4.9-26.7,9.06-53.36,42.5-57.28,17.45-2,36.62,12.17,39.86,30C237.24,261.63,237.18,268,237.64,274.09Z"/><path class="cls-1" d="M850.29,298.28c0,13.62-3.33,18.12-16.7,21.64a55.52,55.52,0,0,1-36.16-2.19c-7.6-3.14-12.85-8.63-13.37-17.13-0.53-8.7,4.09-15.07,11.44-19,13.76-7.42,28.26-8.28,42.89-2.93C848.17,282.21,850.29,286.23,850.29,298.28Z"/></svg>